<mxfile host="app.diagrams.net" modified="2023-06-10T12:20:19.396Z" agent="Mozilla/5.0 (Macintosh; Intel Mac OS X 10_15_7) AppleWebKit/537.36 (KHTML, like Gecko) Chrome/113.0.0.0 Safari/537.36 OPR/99.0.0.0" etag="ES8u6Il9pSIy7QoaPLQR" version="21.3.8" type="device">
  <diagram name="Pagina-1" id="yvqPOqqzRVdHtQgZTAIy">
    <mxGraphModel dx="1103" dy="622" grid="1" gridSize="10" guides="1" tooltips="1" connect="1" arrows="1" fold="1" page="1" pageScale="1" pageWidth="827" pageHeight="1169" math="0" shadow="0">
      <root>
        <mxCell id="0" />
        <mxCell id="1" parent="0" />
        <mxCell id="gpTCXs_jcJVewVl4tfsQ-4" value="process" style="edgeStyle=orthogonalEdgeStyle;rounded=0;orthogonalLoop=1;jettySize=auto;html=1;entryX=0.5;entryY=0;entryDx=0;entryDy=0;endArrow=open;endFill=0;dashed=1;" edge="1" parent="1" source="gpTCXs_jcJVewVl4tfsQ-1" target="gpTCXs_jcJVewVl4tfsQ-3">
          <mxGeometry relative="1" as="geometry" />
        </mxCell>
        <mxCell id="gpTCXs_jcJVewVl4tfsQ-1" value="&lt;p style=&quot;margin:0px;margin-top:4px;text-align:center;&quot;&gt;&lt;b&gt;CombatSystem&lt;/b&gt;&lt;/p&gt;" style="verticalAlign=top;align=left;overflow=fill;fontSize=12;fontFamily=Helvetica;html=1;whiteSpace=wrap;" vertex="1" parent="1">
          <mxGeometry x="224" y="40" width="110" height="30" as="geometry" />
        </mxCell>
        <mxCell id="gpTCXs_jcJVewVl4tfsQ-9" style="edgeStyle=elbowEdgeStyle;rounded=0;orthogonalLoop=1;jettySize=auto;html=1;entryX=0.5;entryY=1;entryDx=0;entryDy=0;endArrow=diamond;endFill=0;exitX=0.5;exitY=0;exitDx=0;exitDy=0;elbow=vertical;" edge="1" parent="1" source="gpTCXs_jcJVewVl4tfsQ-2" target="gpTCXs_jcJVewVl4tfsQ-3">
          <mxGeometry relative="1" as="geometry">
            <mxPoint x="420" y="290" as="sourcePoint" />
          </mxGeometry>
        </mxCell>
        <mxCell id="gpTCXs_jcJVewVl4tfsQ-2" value="&lt;p style=&quot;margin:0px;margin-top:4px;text-align:center;&quot;&gt;&lt;br&gt;&lt;b&gt;CollisionComponent&lt;/b&gt;&lt;/p&gt;" style="verticalAlign=top;align=left;overflow=fill;fontSize=12;fontFamily=Helvetica;html=1;whiteSpace=wrap;" vertex="1" parent="1">
          <mxGeometry x="320" y="280" width="140" height="50" as="geometry" />
        </mxCell>
        <mxCell id="gpTCXs_jcJVewVl4tfsQ-3" value="&lt;p style=&quot;margin:0px;margin-top:4px;text-align:center;&quot;&gt;&lt;b&gt;Entity&lt;/b&gt;&lt;/p&gt;" style="verticalAlign=top;align=left;overflow=fill;fontSize=12;fontFamily=Helvetica;html=1;whiteSpace=wrap;" vertex="1" parent="1">
          <mxGeometry x="249" y="160" width="60" height="30" as="geometry" />
        </mxCell>
        <mxCell id="gpTCXs_jcJVewVl4tfsQ-8" style="edgeStyle=elbowEdgeStyle;rounded=0;orthogonalLoop=1;jettySize=auto;html=1;entryX=0.5;entryY=1;entryDx=0;entryDy=0;endArrow=diamond;endFill=1;exitX=0.5;exitY=0;exitDx=0;exitDy=0;elbow=vertical;" edge="1" parent="1" source="gpTCXs_jcJVewVl4tfsQ-5" target="gpTCXs_jcJVewVl4tfsQ-3">
          <mxGeometry relative="1" as="geometry">
            <mxPoint x="180" y="260" as="sourcePoint" />
          </mxGeometry>
        </mxCell>
        <mxCell id="gpTCXs_jcJVewVl4tfsQ-19" value="apply damage" style="edgeStyle=elbowEdgeStyle;rounded=0;orthogonalLoop=1;jettySize=auto;html=1;entryX=0;entryY=0.5;entryDx=0;entryDy=0;elbow=vertical;" edge="1" parent="1" source="gpTCXs_jcJVewVl4tfsQ-5" target="gpTCXs_jcJVewVl4tfsQ-25">
          <mxGeometry relative="1" as="geometry">
            <mxPoint x="320" y="425" as="targetPoint" />
            <Array as="points">
              <mxPoint x="135" y="425" />
              <mxPoint x="135" y="400" />
              <mxPoint x="220" y="420" />
            </Array>
          </mxGeometry>
        </mxCell>
        <mxCell id="gpTCXs_jcJVewVl4tfsQ-5" value="&lt;p style=&quot;margin:0px;margin-top:4px;text-align:center;&quot;&gt;&lt;b&gt;AttackComponent&lt;/b&gt;&lt;/p&gt;&lt;hr size=&quot;1&quot;&gt;&lt;div style=&quot;height:2px;&quot;&gt;+getDamage(): Int&lt;br&gt;+getPredicate(): Predicate&amp;lt;Entity&amp;gt;&lt;/div&gt;&lt;div style=&quot;height:2px;&quot;&gt;&lt;br&gt;&lt;/div&gt;" style="verticalAlign=top;align=left;overflow=fill;fontSize=12;fontFamily=Helvetica;html=1;whiteSpace=wrap;" vertex="1" parent="1">
          <mxGeometry x="30" y="280" width="210" height="70" as="geometry" />
        </mxCell>
        <mxCell id="gpTCXs_jcJVewVl4tfsQ-10" value="&lt;p style=&quot;margin:0px;margin-top:4px;text-align:center;&quot;&gt;&lt;b&gt;ClearAttackSystem&lt;/b&gt;&lt;/p&gt;" style="verticalAlign=top;align=left;overflow=fill;fontSize=12;fontFamily=Helvetica;html=1;whiteSpace=wrap;" vertex="1" parent="1">
          <mxGeometry x="600" y="40" width="130" height="30" as="geometry" />
        </mxCell>
        <mxCell id="gpTCXs_jcJVewVl4tfsQ-11" value="process" style="edgeStyle=orthogonalEdgeStyle;rounded=0;orthogonalLoop=1;jettySize=auto;html=1;endArrow=open;endFill=0;dashed=1;exitX=0.5;exitY=1;exitDx=0;exitDy=0;entryX=0.5;entryY=0;entryDx=0;entryDy=0;" edge="1" parent="1" source="gpTCXs_jcJVewVl4tfsQ-10" target="gpTCXs_jcJVewVl4tfsQ-12">
          <mxGeometry relative="1" as="geometry">
            <mxPoint x="664.6600000000001" y="90" as="sourcePoint" />
            <mxPoint x="665" y="160" as="targetPoint" />
          </mxGeometry>
        </mxCell>
        <mxCell id="gpTCXs_jcJVewVl4tfsQ-12" value="&lt;p style=&quot;margin:0px;margin-top:4px;text-align:center;&quot;&gt;&lt;b&gt;Entity&lt;/b&gt;&lt;/p&gt;" style="verticalAlign=top;align=left;overflow=fill;fontSize=12;fontFamily=Helvetica;html=1;whiteSpace=wrap;" vertex="1" parent="1">
          <mxGeometry x="635" y="160" width="60" height="30" as="geometry" />
        </mxCell>
        <mxCell id="gpTCXs_jcJVewVl4tfsQ-13" value="&lt;p style=&quot;margin:0px;margin-top:4px;text-align:center;&quot;&gt;&lt;br&gt;&lt;b&gt;MeleeComponent&lt;/b&gt;&lt;/p&gt;" style="verticalAlign=top;align=left;overflow=fill;fontSize=12;fontFamily=Helvetica;html=1;whiteSpace=wrap;" vertex="1" parent="1">
          <mxGeometry x="595" y="280" width="140" height="50" as="geometry" />
        </mxCell>
        <mxCell id="gpTCXs_jcJVewVl4tfsQ-14" style="edgeStyle=elbowEdgeStyle;rounded=0;orthogonalLoop=1;jettySize=auto;html=1;entryX=0.5;entryY=1;entryDx=0;entryDy=0;endArrow=diamond;endFill=1;exitX=0.5;exitY=0;exitDx=0;exitDy=0;elbow=vertical;" edge="1" parent="1" source="gpTCXs_jcJVewVl4tfsQ-13" target="gpTCXs_jcJVewVl4tfsQ-12">
          <mxGeometry relative="1" as="geometry">
            <mxPoint x="400" y="290" as="sourcePoint" />
            <mxPoint x="289" y="200" as="targetPoint" />
          </mxGeometry>
        </mxCell>
        <mxCell id="gpTCXs_jcJVewVl4tfsQ-18" value="0-N" style="rounded=0;orthogonalLoop=1;jettySize=auto;html=1;entryX=0.5;entryY=1;entryDx=0;entryDy=0;endArrow=diamond;endFill=1;exitX=0.5;exitY=0;exitDx=0;exitDy=0;" edge="1" parent="1" source="gpTCXs_jcJVewVl4tfsQ-25" target="gpTCXs_jcJVewVl4tfsQ-2">
          <mxGeometry relative="1" as="geometry">
            <mxPoint x="390" y="400.0000000000001" as="sourcePoint" />
          </mxGeometry>
        </mxCell>
        <mxCell id="gpTCXs_jcJVewVl4tfsQ-25" value="&lt;p style=&quot;margin:0px;margin-top:4px;text-align:center;&quot;&gt;&lt;b&gt;Entity&lt;/b&gt;&lt;/p&gt;" style="verticalAlign=top;align=left;overflow=fill;fontSize=12;fontFamily=Helvetica;html=1;whiteSpace=wrap;" vertex="1" parent="1">
          <mxGeometry x="360" y="410" width="60" height="30" as="geometry" />
        </mxCell>
      </root>
    </mxGraphModel>
  </diagram>
</mxfile>
